<svg width="1920" height="313" viewBox="0 0 1920 313" fill="none" xmlns="http://www.w3.org/2000/svg">
<path fill-rule="evenodd" clip-rule="evenodd" d="M-111 297.932L-61.2915 262.466C-13.2972 227 84.4057 156.068 182.108 148.975C281.525 141.882 379.228 198.627 476.931 241.186C574.634 283.745 672.337 312.118 770.04 312.118C867.742 312.118 967.159 283.745 1064.86 276.652C1162.56 269.559 1260.27 283.745 1357.97 255.373C1455.67 227 1553.38 156.068 1652.79 127.695C1750.5 99.3225 1848.2 113.509 1896.19 120.602L1945.9 127.695V0.0179443H1896.19C1848.2 0.0179443 1750.5 0.0179443 1652.79 0.0179443C1553.38 0.0179443 1455.67 0.0179443 1357.97 0.0179443C1260.27 0.0179443 1162.56 0.0179443 1064.86 0.0179443C967.159 0.0179443 867.742 0.0179443 770.04 0.0179443C672.337 0.0179443 574.634 0.0179443 476.931 0.0179443C379.228 0.0179443 281.525 0.0179443 182.108 0.0179443C84.4057 0.0179443 -13.2972 0.0179443 -61.2915 0.0179443H-111V297.932Z" fill="url(#paint0_linear_64_4)" fill-opacity="0.8"/>
<defs>
<linearGradient id="paint0_linear_64_4" x1="181.823" y1="123.658" x2="1500.56" y2="529.385" gradientUnits="userSpaceOnUse">
<stop stop-color="#EF4836"/>
<stop offset="0.25" stop-color="#EB5487"/>
<stop offset="0.5" stop-color="#F8BE19"/>
<stop offset="0.75" stop-color="#80CAB6"/>
<stop offset="1" stop-color="#4CA5B3"/>
</linearGradient>
</defs>
</svg>
