<svg width="1920" height="148" viewBox="0 0 1920 148" fill="none" xmlns="http://www.w3.org/2000/svg">
<g clip-path="url(#clip0_64_2)">
<rect width="1920" height="148" fill="white"/>
<path fill-rule="evenodd" clip-rule="evenodd" d="M-17 124.319L18.5117 116.425C54.0233 108.531 126.661 92.7438 197.684 86.8235C270.322 80.9032 341.345 84.85 413.982 80.9032C485.006 76.9563 557.643 65.1157 628.667 67.0891C699.69 69.0626 772.327 84.85 843.351 86.8235C915.988 88.7969 987.012 76.9563 1059.65 67.0891C1130.67 57.2219 1203.31 49.3282 1274.33 57.2219C1345.36 65.1157 1417.99 88.7969 1489.02 94.7172C1561.65 100.638 1632.68 88.7969 1705.32 84.85C1776.34 80.9032 1848.98 84.85 1884.49 86.8235L1920 88.7969V148H1884.49C1848.98 148 1776.34 148 1705.32 148C1632.68 148 1561.65 148 1489.02 148C1417.99 148 1345.36 148 1274.33 148C1203.31 148 1130.67 148 1059.65 148C987.012 148 915.988 148 843.351 148C772.327 148 699.69 148 628.667 148C557.643 148 485.006 148 413.982 148C341.345 148 270.322 148 197.684 148C126.661 148 54.0233 148 18.5117 148H-17V124.319Z" fill="url(#paint0_linear_64_2)" fill-opacity="0.8"/>
<path fill-rule="evenodd" clip-rule="evenodd" d="M-161 0L-126.317 20.5556C-91.6333 41.1111 -22.2667 82.2222 47.1 86.3333C116.467 90.4444 185.833 57.5556 255.2 37C324.567 16.4444 393.933 8.22222 463.3 16.4444C532.667 24.6667 602.033 49.3333 671.4 69.8889C740.767 90.4444 810.133 106.889 879.5 119.222C948.867 131.556 1018.23 139.778 1087.6 119.222C1156.97 98.6667 1226.33 49.3333 1295.7 45.2222C1365.07 41.1111 1434.43 82.2222 1503.8 82.2222C1573.17 82.2222 1642.53 41.1111 1711.9 20.5556C1781.27 0 1850.63 0 1885.32 0H1920V148H1885.32C1850.63 148 1781.27 148 1711.9 148C1642.53 148 1573.17 148 1503.8 148C1434.43 148 1365.07 148 1295.7 148C1226.33 148 1156.97 148 1087.6 148C1018.23 148 948.867 148 879.5 148C810.133 148 740.767 148 671.4 148C602.033 148 532.667 148 463.3 148C393.933 148 324.567 148 255.2 148C185.833 148 116.467 148 47.1 148C-22.2667 148 -91.6333 148 -126.317 148H-161V0Z" fill="url(#paint1_linear_64_2)" fill-opacity="0.8"/>
</g>
<defs>
<linearGradient id="paint0_linear_64_2" x1="258.753" y1="91.2385" x2="964.804" y2="770.434" gradientUnits="userSpaceOnUse">
<stop stop-color="#EF4836"/>
<stop offset="0.25" stop-color="#EB5487"/>
<stop offset="0.5" stop-color="#F8BE19"/>
<stop offset="0.75" stop-color="#80CAB6"/>
<stop offset="1" stop-color="#4CA5B3"/>
</linearGradient>
<linearGradient id="paint1_linear_64_2" x1="135.253" y1="58.6308" x2="1155.95" y2="728.616" gradientUnits="userSpaceOnUse">
<stop stop-color="#EF4836"/>
<stop offset="0.25" stop-color="#EB5487"/>
<stop offset="0.5" stop-color="#F8BE19"/>
<stop offset="0.75" stop-color="#80CAB6"/>
<stop offset="1" stop-color="#4CA5B3"/>
</linearGradient>
<clipPath id="clip0_64_2">
<rect width="1920" height="148" fill="white"/>
</clipPath>
</defs>
</svg>
