<svg width="1920" height="379" viewBox="0 0 1920 379" fill="none" xmlns="http://www.w3.org/2000/svg">
<path fill-rule="evenodd" clip-rule="evenodd" d="M-15.4866 163.341L52.7181 118.616C120.923 73.8921 257.332 -15.5567 393.741 2.33308C530.151 20.2228 666.56 145.451 802.969 163.341C939.378 181.231 1075.79 91.7818 1212.2 82.837C1348.61 73.8921 1485.02 145.451 1621.42 154.396C1757.83 163.341 1894.24 109.672 1962.45 82.837L2030.65 56.0023V378.018H1962.45C1894.24 378.018 1757.83 378.018 1621.42 378.018C1485.02 378.018 1348.61 378.018 1212.2 378.018C1075.79 378.018 939.378 378.018 802.969 378.018C666.56 378.018 530.151 378.018 393.741 378.018C257.332 378.018 120.923 378.018 52.7181 378.018H-15.4866V163.341Z" fill="url(#paint0_linear_64_5)" fill-opacity="0.8"/>
<defs>
<linearGradient id="paint0_linear_64_5" x1="275.804" y1="149.753" x2="1625.63" y2="490.834" gradientUnits="userSpaceOnUse">
<stop stop-color="#EF4836"/>
<stop offset="0.25" stop-color="#EB5487"/>
<stop offset="0.5" stop-color="#F8BE19"/>
<stop offset="0.75" stop-color="#80CAB6"/>
<stop offset="1" stop-color="#4CA5B3"/>
</linearGradient>
</defs>
</svg>
